<svg width="60" height="56" viewBox="0 0 60 56" fill="none" xmlns="http://www.w3.org/2000/svg">
<path d="M8.6001 52H17.0001V38.35L21.2001 36.25V23.65C21.2001 22.2576 20.647 20.9223 19.6624 19.9377C18.6778 18.9531 17.3425 18.4 15.9501 18.4H13.8501C12.4577 18.4 11.1224 18.9531 10.1378 19.9377C9.15322 20.9223 8.6001 22.2576 8.6001 23.65V36.25L12.8001 38.35V47.8C12.2469 47.794 11.698 47.8985 11.1857 48.1075C10.6734 48.3164 10.208 48.6255 9.81682 49.0167C9.42561 49.408 9.11647 49.8734 8.90753 50.3857C8.6986 50.8979 8.59408 51.4468 8.6001 52Z" fill="black"/>
<path d="M19.1 14.2C19.1 13.3693 18.8536 12.5573 18.3921 11.8666C17.9306 11.1759 17.2747 10.6376 16.5072 10.3197C15.7398 10.0018 14.8953 9.91865 14.0806 10.0807C13.2659 10.2428 12.5175 10.6428 11.9301 11.2302C11.3427 11.8175 10.9427 12.5659 10.7807 13.3806C10.6186 14.1953 10.7018 15.0398 11.0197 15.8073C11.3375 16.5747 11.8759 17.2307 12.5666 17.6922C13.2572 18.1537 14.0693 18.4 14.9 18.4C16.0139 18.4 17.0821 17.9575 17.8698 17.1699C18.6575 16.3822 19.1 15.3139 19.1 14.2Z" fill="black"/>
<path d="M38 31V19.5C38 18.0413 37.4205 16.6424 36.3891 15.6109C35.3576 14.5795 33.9587 14 32.5 14C31.0413 14 29.6424 14.5795 28.6109 15.6109C27.5795 16.6424 27 18.0413 27 19.5V41C27 42.0609 27.4214 43.0783 28.1716 43.8284C28.9217 44.5786 29.9391 45 31 45H60V33H40C39.7371 33.0009 39.4766 32.9498 39.2335 32.8496C38.9905 32.7495 38.7696 32.6022 38.5837 32.4163C38.3978 32.2304 38.2505 32.0095 38.1504 31.7665C38.0502 31.5234 37.9991 31.2629 38 31Z" fill="black"/>
<path d="M60 54H0V56H60V54Z" fill="black"/>
<path d="M29.376 10.749L34.169 6.50004C34.3305 6.35689 34.4414 6.16531 34.4851 5.95393C34.5288 5.74255 34.5029 5.52271 34.4113 5.32726C34.3197 5.13182 34.1673 4.97125 33.9769 4.86955C33.7866 4.76786 33.5684 4.73049 33.355 4.76304L28.223 5.54104L28.123 1.57704C28.1177 1.36154 28.0429 1.15353 27.9097 0.984005C27.7766 0.814483 27.5922 0.692526 27.3841 0.636312C27.176 0.580097 26.9553 0.592634 26.7549 0.672055C26.5545 0.751475 26.3851 0.893527 26.272 1.07704L24.244 4.37704L21.854 0.993038C21.732 0.819573 21.5581 0.689373 21.3572 0.621247C21.1564 0.553121 20.9392 0.550597 20.7368 0.614038C20.5345 0.677479 20.3575 0.803602 20.2316 0.974186C20.1056 1.14477 20.0371 1.35098 20.036 1.56304L20 7.64604L22 7.65804L22.018 4.70004L23.479 6.77304C23.5744 6.90826 23.7019 7.01769 23.8501 7.0915C23.9982 7.16531 24.1623 7.20119 24.3278 7.19594C24.4932 7.19069 24.6547 7.14446 24.7979 7.0614C24.941 6.97834 25.0613 6.86105 25.148 6.72004L26.208 4.99904L26.253 6.73304C26.2566 6.87486 26.2904 7.01429 26.3521 7.14206C26.4137 7.26982 26.5019 7.38301 26.6107 7.47409C26.7194 7.56517 26.8463 7.63207 26.9829 7.67034C27.1196 7.7086 27.2627 7.71737 27.403 7.69604L30.309 7.25504L28.05 9.25504L29.376 10.749Z" fill="black"/>
</svg>
